PathFileType	4	(X/Y/Z)	/Users/itak/Documents/Research/Walk-IL/dataset/trc/00423_00012.trc
DataRate	CameraRate	NumFrames	NumMarkers	Units	OrigDataRate	OrigDataStartFrame	OrigNumFrames
100.000000	100.000000	4	53	mm	100.000000	140	560
Frame#	Time	RPSI			LPSI			L3			STRN			T10			C7			CLAV			RBAK			LBAK			LSHO			LUPA			LAEL			LAOL			LWTS			LWPS			LFRA			LHPS			LHTS			RSHO			RUPA			RAEL			RAOL			RWTS			RWPS			RFRA			RIFD			RHTS			RHPS			RBHD			LFHD			RFHD			LBHD			LHIP			RHIP			RASI			LASI			LKNE			LTHI			LANK			LTIP			LTOE			LMT1			LMT5			LHEE			RKNE			RTHI			RANK			RTIP			RTOE			RMT1			RMT5			RHEE			LIFD			
		X1	Y1	Z1	X2	Y2	Z2	X3	Y3	Z3	X4	Y4	Z4	X5	Y5	Z5	X6	Y6	Z6	X7	Y7	Z7	X8	Y8	Z8	X9	Y9	Z9	X10	Y10	Z10	X11	Y11	Z11	X12	Y12	Z12	X13	Y13	Z13	X14	Y14	Z14	X15	Y15	Z15	X16	Y16	Z16	X17	Y17	Z17	X18	Y18	Z18	X19	Y19	Z19	X20	Y20	Z20	X21	Y21	Z21	X22	Y22	Z22	X23	Y23	Z23	X24	Y24	Z24	X25	Y25	Z25	X26	Y26	Z26	X27	Y27	Z27	X28	Y28	Z28	X29	Y29	Z29	X30	Y30	Z30	X31	Y31	Z31	X32	Y32	Z32	X33	Y33	Z33	X34	Y34	Z34	X35	Y35	Z35	X36	Y36	Z36	X37	Y37	Z37	X38	Y38	Z38	X39	Y39	Z39	X40	Y40	Z40	X41	Y41	Z41	X42	Y42	Z42	X43	Y43	Z43	X44	Y44	Z44	X45	Y45	Z45	X46	Y46	Z46	X47	Y47	Z47	X48	Y48	Z48	X49	Y49	Z49	X50	Y50	Z50	X51	Y51	Z51	X52	Y52	Z52	X53	Y53	Z53	

141	1.4	-1559.464111328125	996.2993774414062	-540.1463623046875	-1572.889770507812	987.2931518554688	-670.833740234375	-1561.480346679688	1061.5634765625	-604.2363891601562	-1324.015747070312	1214.328125	-613.793701171875	-1570.068481445312	1165.356201171875	-608.5262451171875	-1532.429931640625	1413.951782226562	-618.7765502929688	-1374.785522460938	1333.880981445312	-612.8367919921875	-1573.236206054688	1268.395385742188	-548.5860595703125	-1544.086669921875	1376.146240234375	-723.4552612304688	-1456.7099609375	1393.795776367188	-771.3657836914062	-1466.509643554688	1277.816284179688	-845.2286987304688	-1425.327880859375	1081.33203125	-864.0530395507812	-1487.463745117188	1057.069580078125	-811.4679565429688	-1315.442016601562	873.700439453125	-804.051513671875	-1361.94970703125	855.4931030273438	-871.7659912109375	-1398.4072265625	978.4593505859375	-868.6688232421875	-1341.125732421875	771.2474975585938	-860.3128051757812	-1296.277465820312	776.9764404296875	-817.49609375	-1469.368408203125	1393.114379882812	-460.2042541503906	-1476.569213867188	1326.754272460938	-400.7122802734375	-1438.31298828125	1065.845825195312	-358.4789428710938	-1465.176147460938	1053.440673828125	-450.9506225585938	-1293.626342773438	861.705078125	-402.9496459960938	-1328.061157226562	847.71923828125	-337.9951477050781	-1404.002075195312	1003.935363769531	-349.4993591308594	-1282.066528320312	688.2777709960938	-400.9820556640625	-1265.621948242188	757.7689819335938	-385.816162109375	-1315.325561523438	758.575927734375	-338.3447875976562	-1499.51953125	1604.823486328125	-537.3885498046875	-1339.097290039062	1605.998168945312	-655.1250610351562	-1366.751708984375	1608.789916992188	-535.5729370117188	-1481.185424804688	1599.469360351562	-698.6339721679688	-1493.570556640625	971.5333862304688	-789.1229248046875	-1469.372802734375	970.0301513671875	-430.5792236328125	-1342.100708007812	971.9271850585938	-494.6835632324219	-1377.436645507812	964.909912109375	-755.4119262695312	-1461.4970703125	476.1685485839844	-767.8671875	-1464.37744140625	618.1380615234375	-779.2952270507812	-1558.016723632812	41.34371185302734	-710.5279541015625	-1514.58984375	246.5730133056641	-752.4048461914062	-1336.974365234375	45.98391723632812	-668.7568359375	-1414.350830078125	47.24698257446289	-632.5050048828125	-1431.713745117188	42.56441879272461	-735.8593139648438	-1587.395751953125	41.63872528076172	-648.9801635742188	-1448.961547851562	478.4796447753906	-442.5909729003906	-1400.9716796875	743.6876831054688	-432.0399780273438	-1497.694580078125	57.86934280395508	-470.5415649414062	-1442.76025390625	353.0139465332031	-455.6065673828125	-1321.436645507812	41.2676887512207	-541.815673828125	-1398.4873046875	45.76741027832031	-567.356201171875	-1412.2197265625	49.37065887451172	-468.8666381835938	-1571.835327148438	45.00931549072266	-521.7305908203125	-1325.055053710938	696.6837768554688	-796.9102172851562	
142	1.41	-1559.011596679688	996.3224487304688	-540.5137329101562	-1572.441284179688	987.2527465820312	-671.1980590820312	-1560.965087890625	1061.588134765625	-604.5914916992188	-1323.388916015625	1214.210693359375	-614.2510375976562	-1569.501586914062	1165.397338867188	-608.9072265625	-1531.652587890625	1413.967529296875	-619.1932373046875	-1374.079833984375	1333.815673828125	-613.2909545898438	-1572.496215820312	1268.437133789062	-548.9793090820312	-1543.356811523438	1376.146240234375	-723.8626098632812	-1456.015502929688	1393.755615234375	-771.8056030273438	-1465.942993164062	1277.783569335938	-845.6780395507812	-1424.919799804688	1081.281860351562	-864.555908203125	-1486.992309570312	1057.0625	-811.89599609375	-1315.40185546875	873.4091186523438	-804.614013671875	-1361.748046875	855.4130859375	-872.3801879882812	-1398.080444335938	978.3781127929688	-869.2241821289062	-1341.013061523438	771.1869506835938	-860.962158203125	-1296.071044921875	776.7910766601562	-818.2272338867188	-1468.598876953125	1393.0830078125	-460.6419372558594	-1475.8623046875	1326.751586914062	-401.1432495117188	-1437.780029296875	1065.849609375	-358.5133972167969	-1464.65966796875	1053.421752929688	-451.2721862792969	-1293.292846679688	861.6513671875	-403.3307495117188	-1327.357421875	847.73046875	-338.32275390625	-1403.349975585938	1003.903869628906	-349.78173828125	-1281.459350585938	688.341796875	-401.4289855957031	-1264.894775390625	757.7488403320312	-386.2550048828125	-1314.616577148438	758.5696411132812	-338.7217407226562	-1498.65673828125	1604.792358398438	-537.7755126953125	-1338.227172851562	1605.91064453125	-655.5377807617188	-1365.795166015625	1608.662109375	-535.9719848632812	-1480.279296875	1599.444091796875	-698.9970092773438	-1493.123168945312	971.4740600585938	-789.4989013671875	-1468.858764648438	970.0325927734375	-430.9138488769531	-1341.633911132812	971.8714599609375	-495.043212890625	-1376.91064453125	964.812255859375	-755.7295532226562	-1460.501586914062	476.0444030761719	-767.8604125976562	-1463.708740234375	617.9871826171875	-779.50390625	-1558.016479492188	41.40090560913086	-710.4656982421875	-1513.87841796875	246.4717712402344	-752.3465576171875	-1336.965454101562	45.97433090209961	-668.703369140625	-1414.374877929688	47.18520355224609	-632.4317016601562	-1431.741577148438	42.66927719116211	-735.7918090820312	-1587.359130859375	41.55020141601562	-648.9227905273438	-1448.870971679688	478.4270629882812	-442.4828796386719	-1400.581420898438	743.640625	-432.4761352539062	-1497.710083007812	57.86953735351562	-470.5292663574219	-1442.5380859375	353.0240173339844	-455.662841796875	-1321.48583984375	41.26989364624023	-541.8081665039062	-1398.51806640625	45.78230285644531	-567.3505859375	-1412.209716796875	49.37295150756836	-468.8609924316406	-1571.856689453125	44.99852752685547	-521.734130859375	-1324.709350585938	696.5960693359375	-797.29296875	
143	1.42	-1558.5166015625	996.3416748046875	-540.8943481445312	-1571.995971679688	987.2110595703125	-671.5821533203125	-1560.42529296875	1061.611450195312	-604.9620971679688	-1322.761474609375	1214.069580078125	-614.7523803710938	-1568.90283203125	1165.438354492188	-609.300048828125	-1530.830078125	1413.983032226562	-619.6243896484375	-1373.336547851562	1333.737548828125	-613.7777709960938	-1571.712280273438	1268.484985351562	-549.3851318359375	-1542.60205078125	1376.144897460938	-724.2886352539062	-1455.305541992188	1393.7109375	-772.2705688476562	-1465.357421875	1277.748046875	-846.15234375	-1424.514282226562	1081.220947265625	-865.073486328125	-1486.5205078125	1057.052978515625	-812.3438110351562	-1315.369750976562	873.1032104492188	-805.16796875	-1361.554321289062	855.318115234375	-872.9856567382812	-1397.748046875	978.28173828125	-869.7819213867188	-1340.961059570312	771.1189575195312	-861.5995483398438	-1295.911376953125	776.587646484375	-818.9608154296875	-1467.78271484375	1393.044555664062	-461.1024169921875	-1475.105590820312	1326.7451171875	-401.5951843261719	-1437.203857421875	1065.857299804688	-358.6017456054688	-1464.076782226562	1053.396850585938	-451.6011352539062	-1292.85498046875	861.59912109375	-403.730224609375	-1326.639404296875	847.7276000976562	-338.67529296875	-1402.663208007812	1003.876037597656	-350.0751953125	-1280.845092773438	688.3934936523438	-401.9186401367188	-1264.14892578125	757.7081298828125	-386.7307434082031	-1313.887817382812	758.5466918945312	-339.1271667480469	-1497.743774414062	1604.734741210938	-538.1723022460938	-1337.3232421875	1605.810668945312	-655.9641723632812	-1364.815795898438	1608.529052734375	-536.3920288085938	-1479.341796875	1599.415649414062	-699.371826171875	-1492.669067382812	971.4073486328125	-789.8965454101562	-1468.314331054688	970.0397338867188	-431.2827453613281	-1341.115844726562	971.8121948242188	-495.4517211914062	-1376.398193359375	964.7197875976562	-756.0712890625	-1459.386352539062	475.9041748046875	-767.8178100585938	-1462.952392578125	617.813232421875	-779.7086791992188	-1558.019165039062	41.47069549560547	-710.3920288085938	-1513.10595703125	246.3674926757812	-752.2755737304688	-1336.952392578125	45.95415878295898	-668.63232421875	-1414.345947265625	47.14326095581055	-632.3506469726562	-1431.7705078125	42.78934478759766	-735.7103271484375	-1587.337768554688	41.47861862182617	-648.864501953125	-1448.691650390625	478.3797607421875	-442.4474182128906	-1400.142578125	743.5932006835938	-432.9456787109375	-1497.723388671875	57.8731575012207	-470.5232238769531	-1442.31396484375	353.0253295898438	-455.7520751953125	-1321.527587890625	41.27627563476562	-541.8054809570312	-1398.553344726562	45.79426574707031	-567.3466186523438	-1412.1962890625	49.376953125	-468.8569946289062	-1571.877563476562	44.98680877685547	-521.7365112304688	-1324.3740234375	696.5009155273438	-797.6622314453125	
144	1.43	-1557.973388671875	996.3567504882812	-541.2864990234375	-1571.554321289062	987.1654052734375	-671.9849853515625	-1559.860107421875	1061.633544921875	-605.3486938476562	-1322.13037109375	1213.901977539062	-615.2997436523438	-1568.2724609375	1165.477783203125	-609.70263671875	-1529.963012695312	1413.997192382812	-620.0693359375	-1372.553955078125	1333.649047851562	-614.2979125976562	-1570.896362304688	1268.536254882812	-549.8067016601562	-1541.827026367188	1376.145629882812	-724.7330322265625	-1454.57568359375	1393.66015625	-772.7600708007812	-1464.75439453125	1277.710815429688	-846.6530151367188	-1424.110595703125	1081.148315429688	-865.607421875	-1486.045043945312	1057.040283203125	-812.8142700195312	-1315.333129882812	872.780029296875	-805.710205078125	-1361.354125976562	855.2053833007812	-873.5791625976562	-1397.417602539062	978.1731567382812	-870.3433227539062	-1340.946899414062	771.0372314453125	-862.2216796875	-1295.7763671875	776.379638671875	-819.6815795898438	-1466.916137695312	1392.999877929688	-461.5862731933594	-1474.296997070312	1326.732177734375	-402.0695190429688	-1436.578369140625	1065.873413085938	-358.7934265136719	-1463.413452148438	1053.362426757812	-451.9339294433594	-1292.27392578125	861.5599975585938	-404.1346740722656	-1325.909790039062	847.7075805664062	-339.0510559082031	-1401.947387695312	1003.851501464844	-350.3829650878906	-1280.189819335938	688.4217529296875	-402.443359375	-1263.384033203125	757.6463623046875	-387.2389221191406	-1313.138916015625	758.5049438476562	-339.5596618652344	-1496.778442382812	1604.651000976562	-538.5787353515625	-1336.387084960938	1605.701049804688	-656.4046020507812	-1363.825439453125	1608.395751953125	-536.8359985351562	-1478.373901367188	1599.378784179688	-699.7598876953125	-1492.21728515625	971.3312377929688	-790.3181762695312	-1467.741088867188	970.05224609375	-431.6898498535156	-1340.555297851562	971.7412109375	-495.9132995605469	-1375.916259765625	964.6292114257812	-756.4479370117188	-1458.143676757812	475.74462890625	-767.7385864257812	-1462.103271484375	617.61572265625	-779.9083862304688	-1558.023803710938	41.55133819580078	-710.3065185546875	-1512.272216796875	246.2574615478516	-752.1898803710938	-1336.937255859375	45.92510986328125	-668.5415649414062	-1414.251220703125	47.12839508056641	-632.2640991210938	-1431.796997070312	42.9213981628418	-735.6165771484375	-1587.325317382812	41.41593170166016	-648.7997436523438	-1448.431762695312	478.3412780761719	-442.49853515625	-1399.637573242188	743.5503540039062	-433.4456176757812	-1497.734130859375	57.88105010986328	-470.526123046875	-1442.089111328125	353.0126953125	-455.8778991699219	-1321.564453125	41.28821563720703	-541.8089599609375	-1398.588623046875	45.80228424072266	-567.34326171875	-1412.180908203125	49.38210296630859	-468.8553466796875	-1571.89892578125	44.97592926025391	-521.7366333007812	-1324.083862304688	696.3906860351562	-798.031494140625	
